<svg xmlns="http://www.w3.org/2000/svg" width="256" height="83" fill="none" viewBox="0 0 256 83">
  <path fill="#00717B" d="M105.254 36V18.937h4.816c1.485 0 2.797.329 3.938.985 1.14.656 2.019 1.59 2.637 2.8.625 1.212.941 2.602.949 4.172v1.09c0 1.61-.313 3.02-.938 4.23-.617 1.212-1.504 2.142-2.66 2.79-1.148.648-2.488.98-4.019.996h-4.723zm2.25-15.21v13.37h2.367c1.734 0 3.082-.539 4.043-1.617.969-1.078 1.453-2.613 1.453-4.605v-.997c0-1.937-.457-3.441-1.371-4.511-.906-1.078-2.195-1.625-3.867-1.64h-2.625zm26.625 7.23c0 1.671-.281 3.132-.844 4.382-.562 1.242-1.359 2.192-2.39 2.848-1.032.656-2.235.984-3.61.984-1.344 0-2.535-.328-3.574-.984-1.039-.664-1.848-1.605-2.426-2.824-.57-1.227-.863-2.645-.879-4.254v-1.23c0-1.641.285-3.09.856-4.348.57-1.258 1.375-2.219 2.414-2.883 1.047-.672 2.242-1.008 3.586-1.008 1.367 0 2.57.332 3.609.996 1.047.656 1.852 1.613 2.414 2.871.563 1.25.844 2.707.844 4.371v1.079zm-2.238-1.102c0-2.023-.407-3.574-1.219-4.652-.813-1.086-1.949-1.63-3.41-1.63-1.422 0-2.543.544-3.364 1.63-.812 1.078-1.23 2.578-1.253 4.5v1.254c0 1.96.41 3.503 1.23 4.628.828 1.118 1.965 1.676 3.41 1.676 1.453 0 2.578-.527 3.375-1.582.797-1.062 1.207-2.582 1.231-4.558v-1.266zm9.293 3.703l.328 2.25.48-2.027 3.375-11.907h1.899l3.293 11.907.468 2.062.364-2.297 2.648-11.672h2.262L152.164 36h-2.051l-3.515-12.434-.27-1.3-.269 1.3L142.414 36h-2.051l-4.125-17.063h2.25l2.696 11.684zM171.922 36h-2.262l-8.59-13.148V36h-2.261V18.937h2.261l8.614 13.207V18.939h2.238V36zm6.258-1.84h8.086V36h-10.348V18.937h2.262V34.16zm23.004-6.14c0 1.671-.282 3.132-.844 4.382-.563 1.242-1.36 2.192-2.391 2.848-1.031.656-2.234.984-3.609.984-1.344 0-2.535-.328-3.574-.984-1.039-.664-1.848-1.605-2.426-2.824-.57-1.227-.863-2.645-.879-4.254v-1.23c0-1.641.285-3.09.855-4.348.571-1.258 1.375-2.219 2.414-2.883 1.047-.672 2.243-1.008 3.586-1.008 1.368 0 2.571.332 3.61.996 1.047.656 1.851 1.613 2.414 2.871.562 1.25.844 2.707.844 4.371v1.079zm-2.239-1.102c0-2.023-.406-3.574-1.218-4.652-.813-1.086-1.95-1.63-3.411-1.63-1.421 0-2.543.544-3.363 1.63-.812 1.078-1.23 2.578-1.254 4.5v1.254c0 1.96.41 3.503 1.231 4.628.828 1.118 1.965 1.676 3.41 1.676 1.453 0 2.578-.527 3.375-1.582.797-1.062 1.207-2.582 1.23-4.558v-1.266zm14.778 4.629h-7.149L204.969 36h-2.321l6.516-17.063h1.969L217.66 36h-2.308l-1.629-4.453zm-6.469-1.852h5.801l-2.907-7.98-2.894 7.98zM219.957 36V18.937h4.816c1.485 0 2.797.329 3.938.985 1.141.656 2.019 1.59 2.637 2.8.625 1.212.941 2.602.949 4.172v1.09c0 1.61-.313 3.02-.938 4.23-.617 1.212-1.504 2.142-2.66 2.79-1.148.648-2.488.98-4.019.996h-4.723zm2.25-15.21v13.37h2.367c1.735 0 3.082-.539 4.043-1.617.969-1.078 1.453-2.613 1.453-4.605v-.997c0-1.937-.457-3.441-1.371-4.511-.906-1.078-2.195-1.625-3.867-1.64h-2.625zm-84.773 26.148l5.578 13.921 5.578-13.922h2.918V64h-2.25v-6.645l.211-7.171L143.867 64h-1.722l-5.59-13.781.222 7.136V64h-2.25V46.937h2.907zm22.921 8.566l4.454-8.566h2.554l-5.883 10.699V64h-2.25v-6.363l-5.882-10.7h2.578l4.429 8.567zm27.715 3.082c-.211 1.805-.879 3.2-2.004 4.184-1.117.976-2.605 1.464-4.464 1.464-2.016 0-3.633-.722-4.852-2.168-1.211-1.445-1.816-3.379-1.816-5.8v-1.641c0-1.586.281-2.98.843-4.184.571-1.203 1.375-2.125 2.414-2.765 1.039-.649 2.243-.973 3.61-.973 1.812 0 3.265.508 4.359 1.524 1.094 1.007 1.731 2.406 1.91 4.195h-2.261c-.196-1.36-.621-2.344-1.278-2.953-.648-.61-1.558-.914-2.73-.914-1.438 0-2.567.53-3.387 1.593-.812 1.063-1.219 2.575-1.219 4.536v1.652c0 1.852.387 3.324 1.16 4.418.774 1.094 1.856 1.64 3.247 1.64 1.25 0 2.207-.28 2.871-.843.672-.57 1.117-1.559 1.336-2.965h2.261zm8.731 2.426l4.875-14.075h2.461L197.809 64h-1.993L189.5 46.937h2.449l4.852 14.075zM0 0h85v83H0z"/>
  <g clip-path="url(#clip0)">
    <path fill="#fff" d="M55.75 31.55H47.8v-15.9H37.2v15.9h-7.95L42.5 44.8l13.25-13.25zm11.495 17.31c-.556-.594-4.269-4.566-5.329-5.602a3.983 3.983 0 00-2.761-1.108h-4.656l8.12 7.934h-9.392a.727.727 0 00-.636.353L50.428 55.4H34.571l-2.163-4.963a.73.73 0 00-.636-.353h-9.391l8.117-7.934h-4.654a3.993 3.993 0 00-2.761 1.108c-1.06 1.038-4.773 5.01-5.33 5.602-1.295 1.38-2.008 2.48-1.669 3.84l1.487 8.146c.34 1.362 1.831 2.48 3.318 2.48h43.227c1.486 0 2.978-1.118 3.317-2.48L68.92 52.7c.334-1.36-.376-2.46-1.675-3.84z"/>
  </g>
  <rect width="253" height="80" x="1.5" y="1.5" stroke="#00717B" stroke-width="3" rx="15.5"/>
  <defs>
    <clipPath id="clip0">
      <path fill="#fff" d="M0 0h53v53H0z" transform="translate(16 13)"/>
    </clipPath>
  </defs>
</svg>
