<svg xmlns="http://www.w3.org/2000/svg" width="83" height="83" fill="none" viewBox="0 0 83 83">
  <path fill="#00717B" fill-rule="evenodd" d="M41.5 5.343C20.56 5.343 3.607 22.21 3.607 42.98c0 15.252 9.14 28.376 22.296 34.28 1.376.618 2.722.373 3.773-.416a4.773 4.773 0 001.84-3.828v-1.971l-4.693-.637a1.66 1.66 0 01-.104-.017c-2.587-.505-4.333-1.414-5.613-2.725-1.075-1.103-1.732-2.424-2.29-3.545l-.193-.39a40.244 40.244 0 00-1.684-3.148c-.467-.74-.83-1.12-1.19-1.359-.913-.605-1.791-1.632-1.791-2.915a2.49 2.49 0 01.899-1.937 2.919 2.919 0 011.888-.63c.768 0 1.49.236 2.092.506.616.276 1.228.643 1.799 1.023 1.39.927 2.76 2.023 3.918 3.376 1.207 1.404 2.061 2.296 3.348 2.48 1.058.151 2.137.155 2.977.117.117-.666.31-1.315.574-1.937a28.877 28.877 0 01-3.032-.885c-2.262-.802-4.783-2.051-6.478-3.943-1.86-2.082-3.012-3.939-3.655-6.11-.626-2.117-.73-4.41-.73-7.232 0-4.323 1.87-7.965 3.275-9.898a29.92 29.92 0 01-1.159-5.19 12.155 12.155 0 01.004-3.348c.173-1.014.605-2.259 1.743-3.009 1.096-.73 2.383-.699 3.386-.512 1.04.197 2.123.63 3.119 1.124 1.622.802 3.234 1.875 4.44 2.784 2.083-.612 5.766-1.4 9.096-1.473h.076c3.334.072 6.851.86 8.881 1.47 1.21-.907 2.819-1.982 4.437-2.78.996-.495 2.075-.928 3.12-1.125 1.002-.187 2.289-.218 3.389.509 1.134.753 1.57 1.998 1.74 3.012.176 1.055.134 2.234 0 3.347a29.953 29.953 0 01-1.156 5.191c1.404 1.937 3.275 5.579 3.275 9.898 0 2.822-.104 5.115-.726 7.228-.647 2.179-1.798 4.032-3.659 6.114-1.695 1.892-4.216 3.14-6.477 3.943-1.201.422-2.428.765-3.673 1.027.425 1.287.577 2.327.577 2.926V73.06c0 1.625.758 3.012 1.833 3.821 1.045.792 2.387 1.038 3.763.436 13.28-5.851 22.527-19.01 22.527-34.341C79.39 22.21 62.444 5.343 41.5 5.343zm-8.729 59.363c-.899.128-.003 0-.003 0h-.01l-.028.007-.1.013c-.514.06-1.03.103-1.547.128-.975.045-2.313.049-3.686-.148-2.736-.388-4.4-2.324-5.475-3.583l-.103-.118c-.352-.408-.73-.792-1.131-1.151.356.657.726 1.39 1.124 2.178l.034.07.177.36c.605 1.203 1.003 2.005 1.663 2.676.643.657 1.646 1.293 3.673 1.694l6.204.84a1.805 1.805 0 011.563 1.792v3.552c0 2.767-1.297 5.233-3.285 6.727a7.218 7.218 0 01-7.411.816C10.036 74.102 0 59.726 0 42.98 0 20.183 18.596 1.73 41.5 1.73S83 20.182 83 42.98c0 16.832-10.164 31.246-24.682 37.648a7.23 7.23 0 01-7.39-.854 8.39 8.39 0 01-3.272-6.716V62.37c0-.242-.17-1.639-1.114-3.517a1.812 1.812 0 011.411-2.61c1.186-.132 3.185-.516 5.202-1.232 2.054-.726 3.897-1.722 4.993-2.947 1.63-1.819 2.442-3.216 2.888-4.727.463-1.567.581-3.39.581-6.2 0-3.947-2.075-7.263-3.03-8.332a1.81 1.81 0 01-.359-1.809c.484-1.362 1.072-3.482 1.297-5.374.11-.951.117-1.747.02-2.32a1.58 1.58 0 00-.186-.599 1.68 1.68 0 00-.716.031c-.588.111-1.338.388-2.19.81-1.694.836-3.458 2.074-4.55 2.96a1.798 1.798 0 01-1.747.294 32.183 32.183 0 00-8.656-1.567c-3.483.083-7.501 1.072-8.874 1.567a1.797 1.797 0 01-1.746-.294 26.892 26.892 0 00-4.552-2.96 9.019 9.019 0 00-2.192-.81 1.68 1.68 0 00-.713-.03 1.576 1.576 0 00-.186.598c-.097.573-.09 1.369.02 2.32.225 1.892.816 4.012 1.297 5.374a1.811 1.811 0 01-.36 1.809c-.954 1.069-3.029 4.385-3.029 8.331 0 2.808.118 4.634.581 6.2.45 1.512 1.259 2.906 2.884 4.728 1.1 1.225 2.94 2.22 4.998 2.947a24.886 24.886 0 005.197 1.231 1.805 1.805 0 01.851 3.268c-.57.408-.947 1.142-1.158 1.989a6.72 6.72 0 00-.194 1.331v.066a1.809 1.809 0 01-1.553 1.809z" clip-rule="evenodd"/>
</svg>
