<svg xmlns="http://www.w3.org/2000/svg" width="85" height="106" fill="none" viewBox="0 0 85 106">
  <path fill="#fff" stroke="#F29E03" d="M70.076 49.323a11.288 11.288 0 0111.11 18.834l-11.11-18.834zm0 0h-.007l-.069.02a11.295 11.295 0 00-4.79 2.85v.001l-29.64 29.64h0a19.704 19.704 0 00-5.18 9.153s0 0 0 0l-2.096 8.375h0a4.719 4.719 0 005.709 5.724h.001l8.375-2.096a19.695 19.695 0 009.153-5.18h0l29.653-29.653-11.109-18.834zM36.077 1V.5H11.373A10.873 10.873 0 00.5 11.373V87.43a10.873 10.873 0 0010.873 10.873H22.448l.095-.38 2.088-8.36s0 0 0 0a25.62 25.62 0 016.742-11.904h0L61.02 48.012h0a17.122 17.122 0 019.206-4.785l.415-.071v-8.079H45.937a9.873 9.873 0 01-9.86-9.873V1zm32.335 28.162h1.207l-.853-.854L42.833 2.375l-.354.354h-.5v22.475a3.958 3.958 0 003.958 3.958h22.475z"/>
</svg>
